<?xml version="1.0" encoding="UTF-8"?>
<svg id="Layer_2" data-name="Layer 2" xmlns="http://www.w3.org/2000/svg" xmlns:xlink="http://www.w3.org/1999/xlink" viewBox="0 0 275 110">
  <defs>
    <style>
      .cls-1 {
        fill: none;
      }

      .cls-2 {
        fill: url(#blade-grad);
      }

      .cls-3 {
        clip-path: url(#clippath);
      }
    </style>
    <clipPath id="clippath">
      <rect class="cls-1" width="275" height="110"/>
    </clipPath>
    <linearGradient id="blade-grad" gradientUnits="userSpaceOnUse" x1="0" y1="0" x2="0" y2="110">
      <stop offset="0%" stop-color="#3d6848"/>
      <stop offset="100%" stop-color="#2e5238"/>
    </linearGradient>
    <filter id="vgrain" x="0" y="0" width="100%" height="100%" color-interpolation-filters="sRGB">
      <feTurbulence type="fractalNoise" baseFrequency="0.5 0.012" numOctaves="2" result="noise"/>
      <feColorMatrix type="saturate" values="0" in="noise" result="gray"/>
      <feComponentTransfer in="gray" result="contrasty">
        <feFuncR type="gamma" amplitude="1" exponent="2.5" offset="0"/>
        <feFuncG type="gamma" amplitude="1" exponent="2.5" offset="0"/>
        <feFuncB type="gamma" amplitude="1" exponent="2.5" offset="0"/>
      </feComponentTransfer>
      <feBlend in="SourceGraphic" in2="contrasty" mode="multiply" result="blend"/>
      <feComposite in="blend" in2="SourceGraphic" operator="in"/>
    </filter>
  </defs>
  <g id="Layer_1-2" data-name="Layer 1">
    <g class="cls-3">
      <g filter="url(#vgrain)">
        <path class="cls-2" d="M16.75,112.17S28.6,25.73,24.84,20.81c3.76,4.05,2.89,83.26,2.31,90.2l-10.41,1.16Z"/>
        <path class="cls-2" d="M45.37,112.17c.29-10.99,5.21-73.37,5.2-88.7,0-8.09,5.2,80.31,5.2,88.7-5.49.29-10.41,0-10.41,0Z"/>
        <path class="cls-2" d="M135.85,114.19c.29-10.99,5.21-73.37,5.2-88.7,0-8.09,5.2,80.31,5.2,88.7-5.49.29-10.41,0-10.41,0Z"/>
        <path class="cls-2" d="M210.67,112.17c.29-10.99,5.21-73.37,5.2-88.7,0-8.09,5.2,80.31,5.2,88.7-5.49.29-10.41,0-10.41,0Z"/>
        <path class="cls-2" d="M61.27,112.29s1.45-75,13.01-91.48c-4.63,18.79-7.67,89.04-4.41,91.35-4.26,0-8.6.13-8.6.13Z"/>
        <path class="cls-2" d="M260.74,113.36s1.45-75,13.01-91.48c-4.63,18.79-7.67,89.04-4.41,91.35-4.26,0-8.6.13-8.6.13Z"/>
        <path class="cls-2" d="M181.82,113.36s1.45-75,13.01-91.48c-4.63,18.79-7.67,89.04-4.41,91.35-4.26,0-8.6.13-8.6.13Z"/>
        <path class="cls-2" d="M74.28,113.03s9.25-64.18,7.23-80.95c10.12,19.08.29,80.95.29,80.95-4.63.29-7.52,0-7.52,0Z"/>
        <path class="cls-2" d="M3.25,111.3S12.5,47.12,10.48,30.35c10.12,19.08.29,80.95.29,80.95-4.63.29-7.52,0-7.52,0Z"/>
        <path class="cls-2" d="M92.81,112.57s9.92-58.25,4.5-64.86c7.37,9.5,3.92,65.07,1.92,65.45l-6.42-.59Z"/>
        <path class="cls-2" d="M150.05,112.57s9.92-58.25,4.5-64.86c7.37,9.5,3.92,65.07,1.92,65.45l-6.42-.59Z"/>
        <path class="cls-2" d="M120.5,113.16c.58-13.72,8.64-69.66,4.05-81.07,6.96,16.9,4.91,75.13,5.2,81.07-4.91-.71-9.25,0-9.25,0Z"/>
        <path class="cls-2" d="M174.31,114.32c-.58-13.72-8.64-69.66-4.05-81.07-6.96,16.9-4.91,75.13-5.2,81.07,4.91-.71,9.25,0,9.25,0Z"/>
        <path class="cls-2" d="M243.41,110.18c-.58-13.72-8.64-69.66-4.05-81.07-6.96,16.9-4.91,75.13-5.2,81.07,4.91-.71,9.25,0,9.25,0Z"/>
        <path class="cls-2" d="M106.37,117.37s-4.56-59.26,8.09-109.57c-.29,15.03-5.49,103.21,0,104.36-3.76-.29-8.09,5.2-8.09,5.2Z"/>
        <path class="cls-2" d="M40.17,118.24S44.73,52.61,32.07,2.31c.29,15.03,5.49,109.57,0,110.72,3.76-.29,8.09,5.2,8.09,5.2Z"/>
        <path class="cls-2" d="M254.55,122.28s4.56-65.62-8.09-115.93c.29,15.03,5.49,109.57,0,110.72,3.76-.29,8.09,5.2,8.09,5.2Z"/>
        <path class="cls-2" d="M206.39,160.15s4.56-65.62-8.09-115.93c.29,15.03,5.49,109.57,0,110.72,3.76-.29,8.09,5.2,8.09,5.2Z"/>
      </g>
    </g>
  </g>
</svg>
